<?xml version="1.0" encoding="iso-8859-1"?>
<!-- Generator: Adobe Illustrator 19.0.0, SVG Export Plug-In . SVG Version: 6.00 Build 0)  -->
<svg xmlns="http://www.w3.org/2000/svg" xmlns:xlink="http://www.w3.org/1999/xlink" version="1.1" id="Layer_1" x="0px" y="0px" viewBox="0 0 512 512" style="enable-background:new 0 0 512 512;" xml:space="preserve" width="512" height="512">
<g>
	<g>
		<g>
			<path style="fill:#0A4A75;" d="M373.452,512H90.327c-41.402,0-75.084-33.645-75.084-75V120.232c0-41.355,33.682-75,75.084-75     h283.124c41.402,0,75.084,33.645,75.084,75V437C448.536,478.355,414.854,512,373.452,512z"/>
		</g>
		<path style="fill:#073A59;" d="M373.452,45.232H256.243V512h117.209c41.402,0,75.084-33.645,75.084-75V120.232    C448.536,78.877,414.854,45.232,373.452,45.232z"/>
		<g>
			<path style="fill:#0A71B8;" d="M421.757,463.797H138.95c-41.355,0-75-33.645-75-75V75c0-41.355,33.645-75,75-75h282.807     c41.355,0,75,33.645,75,75v313.797C496.757,430.152,463.112,463.797,421.757,463.797z"/>
		</g>
		<path style="fill:#0A4A75;" d="M421.757,0H280.354v463.797h141.403c41.355,0,75-33.645,75-75V75    C496.757,33.645,463.112,0,421.757,0z"/>
		<g>
			<path style="fill:#8CECFF;" d="M360.863,355.195h-161.02c-8.284,0-15-6.716-15-15s6.716-15,15-15h161.02c8.284,0,15,6.716,15,15     S369.147,355.195,360.863,355.195z"/>
		</g>
		<g>
			<path style="fill:#0A4A75;" d="M293.4,403.958h-26.094c-8.284,0-15-6.716-15-15s6.716-15,15-15H293.4c8.284,0,15,6.716,15,15     S301.685,403.958,293.4,403.958z"/>
		</g>
		<g>
			<path style="fill:#073A59;" d="M293.4,403.958h-13.047v-30H293.4c8.284,0,15,6.716,15,15S301.685,403.958,293.4,403.958z"/>
		</g>
		<path style="fill:#67C7F0;" d="M360.863,325.195h-80.51v30h80.51c8.284,0,15-6.716,15-15S369.147,325.195,360.863,325.195z"/>
	</g>
	<g>
		<g>
			<path style="fill:#FAFAFA;" d="M419.239,294.395H141.468c-8.284,0-15-6.716-15-15V79.361c0-8.284,6.716-15,15-15h277.771     c8.284,0,15,6.716,15,15v200.034C434.239,287.679,427.523,294.395,419.239,294.395z"/>
		</g>
	</g>
	<path style="fill:#DBDBDB;" d="M419.239,64.361H280.354v230.034h138.886c8.284,0,15-6.716,15-15V79.361   C434.239,71.077,427.523,64.361,419.239,64.361z"/>
	<g>
		<path style="fill:#FF9D09;" d="M348.878,189.688c-23.107,0-41.906-18.799-41.906-41.907s18.799-41.907,41.906-41.907    s41.907,18.799,41.907,41.907S371.985,189.688,348.878,189.688z"/>
	</g>
	<g>
		<path style="fill:#F03B0E;" d="M250.893,231.899l-28.745-34.466c-6.639-7.96-19.157-6.948-24.432,1.974l-56.154,94.988h234.033    l-69.194-80.686c-4.72-5.504-12.7-6.844-18.959-3.184L250.893,231.899z"/>
	</g>
	<g>
		<path style="fill:#BD220D;" d="M280.354,294.395h95.242l-69.194-80.686c-4.72-5.504-12.7-6.844-18.959-3.184l-7.089,4.146    L280.354,294.395z"/>
	</g>
</g>















</svg>
